{
  "source": "C:\\Users\\Peter\\Desktop\\stuff\\MIUN\\quantitative_research\\video_compression\\videos\\BVI-HD\\BVI-HD_CDVL_videos\\ORIG\\MartialArts_1920x1080_60fps.mp4",
  "output": "C:\\Users\\Peter\\Desktop\\stuff\\MIUN\\quantitative_research\\video_compression\\compressed_videos\\BVI-HD\\av1\\1.5\\MartialArts_1920x1080_60fps_av1.mkv",
  "codec": "av1",
  "ok": "Input #0, mov,mp4,m4a,3gp,3g2,mj2, from 'C:\\Users\\Peter\\Desktop\\stuff\\MIUN\\quantitative_research\\video_compression\\videos\\BVI-HD\\BVI-HD_CDVL_videos\\ORIG\\MartialArts_1920x1080_60fps.mp4':\n  Metadata:\n    major_brand     : isom\n    minor_version   : 512\n    compatible_brands: isomiso2avc1mp41\n    encoder         : Lavf54.28.101\n  Duration: 00:00:05.00, start: 0.000000, bitrate: 120609 kb/s\n  Stream #0:0[0x1](und): Video: h264 (High 4:4:4 Predictive) (avc1 / 0x31637661), yuv420p(progressive), 1920x1080, 120605 kb/s, 60 fps, 60 tbr, 60 tbn (default)\n    Metadata:\n      handler_name    : VideoHandler\n      vendor_id       : [0][0][0][0]\n[out#0/matroska @ 0000028b367497c0] Codec AVOption b:a (set bitrate (in bits/s)) has not been used for any stream. The most likely reason is either wrong type (e.g. a video option with no video streams) or that it is a private option of some decoder which was not actually used for any stream.\nStream mapping:\n  Stream #0:0 -> #0:0 (h264 (native) -> av1 (libsvtav1))\nPress [q] to stop, [?] for help\nSvt[info]: -------------------------------------------\nSvt[info]: SVT [version]:\tSVT-AV1 Encoder Lib v3.1.0-19-g6ecfe8ec\nSvt[info]: SVT [build]  :\tGCC 15.2.0\t 64 bit\nSvt[info]: LIB Build date: Aug 17 2025 11:37:13\nSvt[info]: -------------------------------------------\nSvt[info]: Level of Parallelism: 5\nSvt[info]: Number of PPCS 93\nSvt[info]: [asm level on system : up to avx2]\nSvt[info]: [asm level selected : up to avx2]\nSvt[info]: -------------------------------------------\nSvt[info]: SVT [config]: main profile\ttier (auto)\tlevel (auto)\nSvt[info]: SVT [config]: width / height / fps numerator / fps denominator \t\t: 1920 / 1080 / 60 / 1\nSvt[info]: SVT [config]: bit-depth / color format \t\t\t\t\t: 8 / YUV420\nSvt[info]: SVT [config]: preset / tune / pred struct \t\t\t\t\t: 4 / PSNR / random access\nSvt[info]: SVT [config]: gop size / mini-gop size / key-frame type \t\t\t: 321 / 16 / key frame\nSvt[info]: SVT [config]: BRC mode / target bitrate (kbps)\t\t\t\t: VBR / 1500 \nSvt[info]: SVT [config]: AQ mode / Variance Boost \t\t\t\t\t: 2 / 0\nSvt[info]: SVT [config]: sharpness / luminance-based QP bias \t\t\t\t: 0 / 0\nSvt[info]: SVT [config]: QP scale compress strength \t\t\t\t\t: 0\nSvt[info]: -------------------------------------------\nOutput #0, matroska, to 'C:\\Users\\Peter\\Desktop\\stuff\\MIUN\\quantitative_research\\video_compression\\compressed_videos\\BVI-HD\\av1\\1.5\\MartialArts_1920x1080_60fps_av1.mkv':\n  Metadata:\n    major_brand     : isom\n    minor_version   : 512\n    compatible_brands: isomiso2avc1mp41\n    encoder         : Lavf62.3.100\n  Stream #0:0(und): Video: av1 (AV01 / 0x31305641), yuv420p(tv, progressive), 1920x1080, q=2-31, 1500 kb/s, 60 fps, 1k tbn (default)\n    Metadata:\n      encoder         : Lavc62.11.100 libsvtav1\n      handler_name    : VideoHandler\n      vendor_id       : [0][0][0][0]\n    Side data:\n      cpb: bitrate max/min/avg: 0/0/1500000 buffer size: 1500000 vbv_delay: N/A\nframe=    0 fps=0.0 q=0.0 size=       0KiB time=N/A bitrate=N/A speed=N/A elapsed=0:00:01.03    \nframe=    0 fps=0.0 q=0.0 size=       0KiB time=N/A bitrate=N/A speed=N/A elapsed=0:00:01.62    \nframe=    0 fps=0.0 q=0.0 size=       0KiB time=N/A bitrate=N/A speed=N/A elapsed=0:00:02.16    \nframe=    0 fps=0.0 q=0.0 size=       0KiB time=N/A bitrate=N/A speed=N/A elapsed=0:00:02.72    \nframe=    1 fps=0.3 q=9.0 size=       1KiB time=00:00:00.00 bitrate=N/A speed=   0x elapsed=0:00:03.27    \nframe=    1 fps=0.3 q=9.0 size=       1KiB time=00:00:00.00 bitrate=N/A speed=   0x elapsed=0:00:03.79    \nframe=    1 fps=0.2 q=9.0 size=       1KiB time=00:00:00.00 bitrate=N/A speed=   0x elapsed=0:00:04.33    \nframe=    6 fps=1.2 q=41.0 size=       1KiB time=00:00:00.08 bitrate=  68.4kbits/s speed=0.0171x elapsed=0:00:04.86    \nframe=   11 fps=2.0 q=37.0 size=       1KiB time=00:00:00.16 bitrate=  34.2kbits/s speed=0.0309x elapsed=0:00:05.38    \nframe=   17 fps=2.9 q=23.0 size=       1KiB time=00:00:00.26 bitrate=  21.4kbits/s speed=0.0449x elapsed=0:00:05.93    \nframe=   22 fps=3.4 q=32.0 size=       1KiB time=00:00:00.35 bitrate=  16.3kbits/s speed=0.054x elapsed=0:00:06.47    \nframe=   26 fps=3.7 q=30.0 size=       1KiB time=00:00:00.41 bitrate=  13.7kbits/s speed=0.0594x elapsed=0:00:07.01    \nframe=   28 fps=3.7 q=29.0 size=       1KiB time=00:00:00.45 bitrate=  12.7kbits/s speed=0.0596x elapsed=0:00:07.54    \nframe=   34 fps=4.2 q=30.0 size=       1KiB time=00:00:00.53 bitrate=  10.7kbits/s speed=0.0658x elapsed=0:00:08.10    \nframe=   36 fps=4.2 q=26.0 size=       1KiB time=00:00:00.58 bitrate=   9.8kbits/s speed=0.0675x elapsed=0:00:08.64    \nframe=   38 fps=4.1 q=25.0 size=       1KiB time=00:00:00.61 bitrate=   9.2kbits/s speed=0.0673x elapsed=0:00:09.16    \nframe=   40 fps=4.1 q=25.0 size=       1KiB time=00:00:00.65 bitrate=   8.8kbits/s speed=0.067x elapsed=0:00:09.69    \nframe=   43 fps=4.2 q=32.0 size=       1KiB time=00:00:00.70 bitrate=   8.1kbits/s speed=0.0686x elapsed=0:00:10.20    \nframe=   47 fps=4.4 q=33.0 size=       1KiB time=00:00:00.76 bitrate=   7.4kbits/s speed=0.0713x elapsed=0:00:10.74    \nframe=   51 fps=4.5 q=33.0 size=       1KiB time=00:00:00.83 bitrate=   6.8kbits/s speed=0.0738x elapsed=0:00:11.29    \nframe=   53 fps=4.5 q=35.0 size=       1KiB time=00:00:00.86 bitrate=   6.6kbits/s speed=0.0734x elapsed=0:00:11.80    \nframe=   54 fps=4.4 q=31.0 size=       1KiB time=00:00:00.88 bitrate=   6.4kbits/s speed=0.0716x elapsed=0:00:12.33    \nframe=   56 fps=4.4 q=31.0 size=       1KiB time=00:00:00.91 bitrate=   6.2kbits/s speed=0.0713x elapsed=0:00:12.84    \nframe=   59 fps=4.4 q=36.0 size=       1KiB time=00:00:00.96 bitrate=   5.9kbits/s speed=0.0723x elapsed=0:00:13.36    \nframe=   63 fps=4.5 q=35.0 size=       1KiB time=00:00:01.03 bitrate=   5.5kbits/s speed=0.0742x elapsed=0:00:13.92    \nframe=   67 fps=4.6 q=36.0 size=       1KiB time=00:00:01.10 bitrate=   5.2kbits/s speed=0.0762x elapsed=0:00:14.44    \nframe=   69 fps=4.6 q=34.0 size=       1KiB time=00:00:01.13 bitrate=   5.0kbits/s speed=0.0758x elapsed=0:00:14.96    \nframe=   71 fps=4.6 q=33.0 size=       1KiB time=00:00:01.16 bitrate=   4.9kbits/s speed=0.0753x elapsed=0:00:15.49    \nframe=   74 fps=4.6 q=31.0 size=       1KiB time=00:00:01.21 bitrate=   4.7kbits/s speed=0.076x elapsed=0:00:16.01    \nframe=   76 fps=4.6 q=31.0 size=       1KiB time=00:00:01.25 bitrate=   4.6kbits/s speed=0.0754x elapsed=0:00:16.57    \nframe=   80 fps=4.7 q=31.0 size=       1KiB time=00:00:01.31 bitrate=   4.3kbits/s speed=0.0769x elapsed=0:00:17.12    \nframe=   84 fps=4.7 q=32.0 size=       1KiB time=00:00:01.36 bitrate=   4.2kbits/s speed=0.0772x elapsed=0:00:17.69    \nframe=   86 fps=4.7 q=32.0 size=       1KiB time=00:00:01.41 bitrate=   4.0kbits/s speed=0.0776x elapsed=0:00:18.24    \nframe=   89 fps=4.7 q=28.0 size=       1KiB time=00:00:01.46 bitrate=   3.9kbits/s speed=0.0781x elapsed=0:00:18.76    \nframe=   91 fps=4.7 q=35.0 size=       1KiB time=00:00:01.50 bitrate=   3.8kbits/s speed=0.0778x elapsed=0:00:19.29    \nframe=   95 fps=4.8 q=36.0 size=       1KiB time=00:00:01.56 bitrate=   3.6kbits/s speed=0.0791x elapsed=0:00:19.80    \nframe=   99 fps=4.9 q=36.0 size=       1KiB time=00:00:01.63 bitrate=   3.5kbits/s speed=0.0804x elapsed=0:00:20.31    \nframe=  102 fps=4.9 q=30.0 size=       1KiB time=00:00:01.68 bitrate=   3.4kbits/s speed=0.0808x elapsed=0:00:20.83    \nframe=  104 fps=4.9 q=30.0 size=       1KiB time=00:00:01.71 bitrate=   3.3kbits/s speed=0.0803x elapsed=0:00:21.36    \nframe=  108 fps=4.9 q=30.0 size=       1KiB time=00:00:01.78 bitrate=   3.2kbits/s speed=0.0814x elapsed=0:00:21.91    \nframe=  113 fps=5.0 q=8.0 size=       1KiB time=00:00:01.86 bitrate=   3.1kbits/s speed=0.0831x elapsed=0:00:22.45    \nframe=  117 fps=5.1 q=35.0 size=       1KiB time=00:00:01.93 bitrate=   2.9kbits/s speed=0.0842x elapsed=0:00:22.97    \nframe=  119 fps=5.1 q=35.0 size=       1KiB time=00:00:01.96 bitrate=   2.9kbits/s speed=0.0837x elapsed=0:00:23.50    \nframe=  124 fps=5.2 q=30.0 size=       1KiB time=00:00:02.05 bitrate=   2.8kbits/s speed=0.0853x elapsed=0:00:24.04    \nframe=  129 fps=5.2 q=9.0 size=       1KiB time=00:00:02.13 bitrate=   2.7kbits/s speed=0.0867x elapsed=0:00:24.59    \nframe=  133 fps=5.3 q=37.0 size=       1KiB time=00:00:02.20 bitrate=   2.6kbits/s speed=0.0876x elapsed=0:00:25.12    \nframe=  136 fps=5.3 q=31.0 size=       1KiB time=00:00:02.25 bitrate=   2.5kbits/s speed=0.0877x elapsed=0:00:25.65    \nframe=  139 fps=5.3 q=35.0 size=       1KiB time=00:00:02.30 bitrate=   2.5kbits/s speed=0.0878x elapsed=0:00:26.18    \nframe=  145 fps=5.4 q=14.0 size=       1KiB time=00:00:02.40 bitrate=   2.4kbits/s speed=0.0898x elapsed=0:00:26.72    \nframe=  148 fps=5.4 q=33.0 size=       1KiB time=00:00:02.45 bitrate=   2.3kbits/s speed=0.0899x elapsed=0:00:27.25    \nframe=  151 fps=5.4 q=35.0 size=       1KiB time=00:00:02.50 bitrate=   2.3kbits/s speed=0.09x elapsed=0:00:27.79    \nframe=  154 fps=5.4 q=34.0 size=       1KiB time=00:00:02.55 bitrate=   2.2kbits/s speed=0.0899x elapsed=0:00:28.35    \nframe=  156 fps=5.4 q=34.0 size=       1KiB time=00:00:02.58 bitrate=   2.2kbits/s speed=0.0892x elapsed=0:00:28.94    \nframe=  159 fps=5.4 q=36.0 size=       1KiB time=00:00:02.63 bitrate=   2.2kbits/s speed=0.0891x elapsed=0:00:29.55    \nframe=  163 fps=5.4 q=35.0 size=       1KiB time=00:00:02.70 bitrate=   2.1kbits/s speed=0.0896x elapsed=0:00:30.12    \nframe=  165 fps=5.4 q=35.0 size=       1KiB time=00:00:02.73 bitrate=   2.1kbits/s speed=0.0891x elapsed=0:00:30.69    \nframe=  167 fps=5.3 q=36.0 size=       1KiB time=00:00:02.76 bitrate=   2.1kbits/s speed=0.0885x elapsed=0:00:31.27    \nframe=  170 fps=5.3 q=37.0 size=       1KiB time=00:00:02.81 bitrate=   2.0kbits/s speed=0.0884x elapsed=0:00:31.84    \nframe=  172 fps=5.3 q=32.0 size=       1KiB time=00:00:02.85 bitrate=   2.0kbits/s speed=0.0879x elapsed=0:00:32.41    \nframe=  177 fps=5.4 q=16.0 size=       1KiB time=00:00:02.93 bitrate=   1.9kbits/s speed=0.089x elapsed=0:00:32.94    \nframe=  181 fps=5.4 q=35.0 size=       1KiB time=00:00:03.00 bitrate=   1.9kbits/s speed=0.0896x elapsed=0:00:33.46    \nframe=  183 fps=5.4 q=37.0 size=       1KiB time=00:00:03.03 bitrate=   1.9kbits/s speed=0.0893x elapsed=0:00:33.97    \nframe=  188 fps=5.5 q=35.0 size=       1KiB time=00:00:03.11 bitrate=   1.8kbits/s speed=0.0904x elapsed=0:00:34.48    \nframe=  194 fps=5.5 q=39.0 size=       1KiB time=00:00:03.21 bitrate=   1.8kbits/s speed=0.0919x elapsed=0:00:35.01    \nframe=  198 fps=5.6 q=39.0 size=       1KiB time=00:00:03.28 bitrate=   1.7kbits/s speed=0.0924x elapsed=0:00:35.53    \nframe=  205 fps=5.7 q=35.0 size=       1KiB time=00:00:03.40 bitrate=   1.7kbits/s speed=0.0943x elapsed=0:00:36.05    \nframe=  209 fps=5.7 q=20.0 size=       1KiB time=00:00:03.46 bitrate=   1.6kbits/s speed=0.0947x elapsed=0:00:36.59    \nframe=  215 fps=5.8 q=38.0 size=       1KiB time=00:00:03.56 bitrate=   1.6kbits/s speed=0.0961x elapsed=0:00:37.10    \nframe=  219 fps=5.8 q=38.0 size=       1KiB time=00:00:03.63 bitrate=   1.6kbits/s speed=0.0966x elapsed=0:00:37.61    \nframe=  225 fps=5.9 q=22.0 size=       1KiB time=00:00:03.73 bitrate=   1.5kbits/s speed=0.0979x elapsed=0:00:38.15    \nframe=  229 fps=5.9 q=37.0 size=       1KiB time=00:00:03.80 bitrate=   1.5kbits/s speed=0.0983x elapsed=0:00:38.67    \nframe=  233 fps=5.9 q=32.0 size=       1KiB time=00:00:03.86 bitrate=   1.5kbits/s speed=0.0986x elapsed=0:00:39.20    \nframe=  237 fps=6.0 q=35.0 size=       1KiB time=00:00:03.93 bitrate=   1.4kbits/s speed=0.099x elapsed=0:00:39.72    \nframe=  243 fps=6.0 q=40.0 size=       1KiB time=00:00:04.03 bitrate=   1.4kbits/s speed= 0.1x elapsed=0:00:40.23    \nframe=  249 fps=6.1 q=32.0 size=       1KiB time=00:00:04.13 bitrate=   1.4kbits/s speed=0.101x elapsed=0:00:40.75    \nframe=  251 fps=6.1 q=39.0 size=       1KiB time=00:00:04.16 bitrate=   1.4kbits/s speed=0.101x elapsed=0:00:41.29    \nframe=  255 fps=6.1 q=38.0 size=       1KiB time=00:00:04.23 bitrate=   1.3kbits/s speed=0.101x elapsed=0:00:41.80    \nframe=  261 fps=6.2 q=37.0 size=       1KiB time=00:00:04.33 bitrate=   1.3kbits/s speed=0.102x elapsed=0:00:42.32    \nframe=  265 fps=6.2 q=32.0 size=       1KiB time=00:00:04.40 bitrate=   1.3kbits/s speed=0.103x elapsed=0:00:42.83    \nframe=  269 fps=6.2 q=38.0 size=       1KiB time=00:00:04.46 bitrate=   1.3kbits/s speed=0.103x elapsed=0:00:43.34    \nframe=  277 fps=6.3 q=42.0 size=       1KiB time=00:00:04.60 bitrate=   1.2kbits/s speed=0.105x elapsed=0:00:43.87    \nframe=  281 fps=6.3 q=38.0 size=       1KiB time=00:00:04.66 bitrate=   1.2kbits/s speed=0.105x elapsed=0:00:44.39    \nframe=  285 fps=6.3 q=42.0 size=       1KiB time=00:00:04.73 bitrate=   1.2kbits/s speed=0.105x elapsed=0:00:44.91    \n[out#0/matroska @ 0000028b367497c0] video:865KiB audio:0KiB subtitle:0KiB other streams:0KiB global headers:0KiB muxing overhead: 0.239824%\nframe=  300 fps=6.6 q=42.0 Lsize=     867KiB time=00:00:04.98 bitrate=1425.2kbits/s speed=0.11x elapsed=0:00:45.22    \n",
  "seconds": 45.62244272232056,
  "probe_out": {}
}